# xmcd
#
# Track frame offsets:
#	150
#	21173
#	38929
#	52770
#	68096
#	82693
#	97182
#	111806
#	125350
#	141378
#	155543
#	172489
#	188922
#	206084
#	228106
#	243297
#	257219
#	275569
#	291570
#
# Disc length: 4090 seconds
#
# Revision: 0
# Processed by: cddbd v1.5.2PL0 Copyright (c) Steve Scherf et al.
# Submitted via: EasyCDDAExtractor 16.0.6.1
#
DISCID=1a0ff813
DTITLE=Γαϊτάνος Πέτρος - Σαν τα κρύα τα νερά-Παραδοσιακά τραγ. Μακεδονίας
DYEAR=2000
DGENRE=Παραδοσιακή
TTITLE0=Γαϊτάνος Πέτρος - Τώρα τα πουλιά (Ο ύπνος του Άγουρου και της Λυγερής)
TTITLE1=Γαϊτάνος Πέτρος - Έχω 'βδομάδες πάω δυό
TTITLE2=Γαϊτάνος Πέτρος - Άνοιξαν τα δέντρα όλα
TTITLE3=Γαϊτάνος Πέτρος - Μίλησέ μου με τον Ήλιο (Τ' άστρι και το φεγγαράκι)
TTITLE4=Γαϊτάνος Πέτρος - Θωμαή
TTITLE5=Γαϊτάνος Πέτρος - Άννα μου Αννούλα
TTITLE6=Γαϊτάνος Πέτρος - Μήλο μου κόκκινο
TTITLE7=Γαϊτάνος Πέτρος - Ένα Σάββατο βράδυ καλέ Μαρία
TTITLE8=Γαϊτάνος Πέτρος - Γερακίνα
TTITLE9=Γαϊτάνος Πέτρος - Βιργινούδα
TTITLE10=Γαϊτάνος Πέτρος - Καγκελευτός (Τ' ακούς εσύ πρωτοσυρτή)
TTITLE11=Γαϊτάνος Πέτρος - Κυρά Μαρία
TTITLE12=Γαϊτάνος Πέτρος - Δώδεκα Ευζωνάκια
TTITLE13=Γαϊτάνος Πέτρος - Σήμερα είναι τ' Αη-Λιά
TTITLE14=Γαϊτάνος Πέτρος - Τώρα που 'στήσαν το χορό
TTITLE15=Γαϊτάνος Πέτρος - Άσπρα μου περιστέρια
TTITLE16=Γαϊτάνος Πέτρος - Τι ήθελα και σ' αγαπούσα
TTITLE17=Γαϊτάνος Πέτρος - Όσα βουνά κι αν πέρασα
TTITLE18=Άνευ ερμηνευτού - Ορχηστρικό [Χασαπιά]
EXTD=
EXTT0=
EXTT1=
EXTT2=
EXTT3=
EXTT4=
EXTT5=
EXTT6=
EXTT7=
EXTT8=
EXTT9=
EXTT10=
EXTT11=
EXTT12=
EXTT13=
EXTT14=
EXTT15=
EXTT16=
EXTT17=
EXTT18=
PLAYORDER=
